G75*
G70*
%OFA0B0*%
%FSLAX24Y24*%
%IPPOS*%
%LPD*%
%AMOC8*
5,1,8,0,0,1.08239X$1,22.5*
%
%ADD10C,0.0060*%
%ADD11R,3.2000X0.3000*%
%ADD12C,0.0600*%
%ADD13C,0.0680*%
%ADD14C,0.0940*%
%ADD15C,0.2580*%
%ADD16C,0.0555*%
D10*
X000745Y007708D02*
X001396Y008076D01*
X002026Y007381D01*
X002026Y007769D01*
X001620Y008206D01*
X002026Y008428D01*
X002026Y008840D01*
X001386Y008468D01*
X000745Y009167D01*
X000745Y008779D01*
X001151Y008338D01*
X000745Y008116D01*
X000745Y007708D01*
X000745Y007722D02*
X000769Y007722D01*
X000745Y007780D02*
X000873Y007780D01*
X000976Y007839D02*
X000745Y007839D01*
X000745Y007897D02*
X001079Y007897D01*
X001183Y007956D02*
X000745Y007956D01*
X000745Y008014D02*
X001286Y008014D01*
X001389Y008073D02*
X000745Y008073D01*
X000773Y008131D02*
X001690Y008131D01*
X001636Y008190D02*
X000880Y008190D01*
X000986Y008248D02*
X001697Y008248D01*
X001804Y008307D02*
X001093Y008307D01*
X001126Y008365D02*
X001911Y008365D01*
X002018Y008424D02*
X001072Y008424D01*
X001019Y008482D02*
X001373Y008482D01*
X001410Y008482D02*
X002026Y008482D01*
X002026Y008541D02*
X001511Y008541D01*
X001611Y008599D02*
X002026Y008599D01*
X002026Y008658D02*
X001712Y008658D01*
X001813Y008716D02*
X002026Y008716D01*
X002026Y008775D02*
X001913Y008775D01*
X002014Y008833D02*
X002026Y008833D01*
X002026Y009071D02*
X002026Y009420D01*
X001016Y009681D01*
X001016Y010131D01*
X002026Y009866D01*
X002026Y010216D01*
X001016Y010477D01*
X001016Y010927D01*
X002026Y010662D01*
X002026Y011007D01*
X001058Y011259D01*
X000984Y011270D01*
X000910Y011270D01*
X000868Y011262D01*
X000829Y011245D01*
X000795Y011220D01*
X000772Y011192D01*
X000755Y011159D01*
X000746Y011124D01*
X000745Y011088D01*
X000745Y009402D01*
X002026Y009071D01*
X002026Y009126D02*
X001814Y009126D01*
X002026Y009184D02*
X001587Y009184D01*
X001361Y009243D02*
X002026Y009243D01*
X002026Y009301D02*
X001134Y009301D01*
X000908Y009360D02*
X002026Y009360D01*
X002026Y009418D02*
X000745Y009418D01*
X000745Y009477D02*
X001808Y009477D01*
X001582Y009535D02*
X000745Y009535D01*
X000745Y009594D02*
X001356Y009594D01*
X001130Y009652D02*
X000745Y009652D01*
X000745Y009711D02*
X001016Y009711D01*
X001016Y009769D02*
X000745Y009769D01*
X000745Y009828D02*
X001016Y009828D01*
X001016Y009886D02*
X000745Y009886D01*
X000745Y009945D02*
X001016Y009945D01*
X001016Y010003D02*
X000745Y010003D01*
X000745Y010062D02*
X001016Y010062D01*
X001016Y010120D02*
X000745Y010120D01*
X000745Y010179D02*
X002026Y010179D01*
X002026Y010120D02*
X001060Y010120D01*
X001283Y010062D02*
X002026Y010062D01*
X002026Y010003D02*
X001505Y010003D01*
X001728Y009945D02*
X002026Y009945D01*
X002026Y009886D02*
X001951Y009886D01*
X001944Y010237D02*
X000745Y010237D01*
X000745Y010296D02*
X001718Y010296D01*
X001492Y010354D02*
X000745Y010354D01*
X000745Y010413D02*
X001266Y010413D01*
X001039Y010471D02*
X000745Y010471D01*
X000745Y010530D02*
X001016Y010530D01*
X001016Y010588D02*
X000745Y010588D01*
X000745Y010647D02*
X001016Y010647D01*
X001016Y010705D02*
X000745Y010705D01*
X000745Y010764D02*
X001016Y010764D01*
X001016Y010822D02*
X000745Y010822D01*
X000745Y010881D02*
X001016Y010881D01*
X001193Y010881D02*
X002026Y010881D01*
X002026Y010939D02*
X000745Y010939D01*
X000745Y010998D02*
X002026Y010998D01*
X002026Y010822D02*
X001416Y010822D01*
X001639Y010764D02*
X002026Y010764D01*
X002026Y010705D02*
X001862Y010705D01*
X001839Y011056D02*
X000745Y011056D01*
X000746Y011115D02*
X001614Y011115D01*
X001388Y011173D02*
X000763Y011173D01*
X000811Y011232D02*
X001163Y011232D01*
X001225Y011466D02*
X002026Y011466D01*
X002026Y011524D02*
X000998Y011524D01*
X000772Y011583D02*
X002026Y011583D01*
X002026Y011604D02*
X002026Y011259D01*
X000745Y011590D01*
X000745Y011935D01*
X002026Y011604D01*
X001883Y011641D02*
X000745Y011641D01*
X000745Y011700D02*
X001657Y011700D01*
X001430Y011758D02*
X000745Y011758D01*
X000745Y011817D02*
X001204Y011817D01*
X000977Y011875D02*
X000745Y011875D01*
X000745Y011934D02*
X000751Y011934D01*
X000927Y012168D02*
X002026Y012168D01*
X002026Y012226D02*
X000856Y012226D01*
X000836Y012245D02*
X000798Y012289D01*
X000769Y012339D01*
X000749Y012394D01*
X000745Y012422D01*
X000745Y012449D01*
X000745Y013710D01*
X001016Y013644D01*
X001016Y012466D01*
X001755Y012277D01*
X001755Y013448D01*
X002026Y013383D01*
X002026Y012088D01*
X002024Y012059D01*
X002015Y012031D01*
X002001Y012006D01*
X001982Y011983D01*
X001945Y011956D01*
X001903Y011937D01*
X001858Y011927D01*
X001806Y011925D01*
X001755Y011931D01*
X001694Y011943D01*
X001074Y012100D01*
X001007Y012123D01*
X000945Y012155D01*
X000887Y012196D01*
X000836Y012245D01*
X000802Y012285D02*
X001724Y012285D01*
X001755Y012285D02*
X002026Y012285D01*
X002026Y012343D02*
X001755Y012343D01*
X001755Y012402D02*
X002026Y012402D01*
X002026Y012460D02*
X001755Y012460D01*
X001755Y012519D02*
X002026Y012519D01*
X002026Y012577D02*
X001755Y012577D01*
X001755Y012636D02*
X002026Y012636D01*
X002026Y012694D02*
X001755Y012694D01*
X001755Y012753D02*
X002026Y012753D01*
X002026Y012811D02*
X001755Y012811D01*
X001755Y012870D02*
X002026Y012870D01*
X002026Y012928D02*
X001755Y012928D01*
X001755Y012987D02*
X002026Y012987D01*
X002026Y013045D02*
X001755Y013045D01*
X001755Y013104D02*
X002026Y013104D01*
X002026Y013162D02*
X001755Y013162D01*
X001755Y013221D02*
X002026Y013221D01*
X002026Y013279D02*
X001755Y013279D01*
X001755Y013338D02*
X002026Y013338D01*
X001971Y013396D02*
X001755Y013396D01*
X001801Y013689D02*
X002026Y013689D01*
X002026Y013747D02*
X001577Y013747D01*
X001354Y013806D02*
X002026Y013806D01*
X002026Y013864D02*
X001130Y013864D01*
X000906Y013923D02*
X002026Y013923D01*
X002026Y013975D02*
X002026Y013630D01*
X002025Y013630D01*
X002026Y013630D02*
X000745Y013965D01*
X000745Y015208D01*
X000748Y015246D01*
X000758Y015283D01*
X000775Y015317D01*
X000798Y015348D01*
X000826Y015373D01*
X000857Y015394D01*
X000891Y015408D01*
X000927Y015416D01*
X000992Y015415D01*
X001056Y015404D01*
X001218Y015361D01*
X001256Y015349D01*
X001292Y015330D01*
X001375Y015274D01*
X001449Y015206D01*
X001494Y015148D01*
X001527Y015083D01*
X001543Y015015D01*
X001551Y014946D01*
X002026Y015118D01*
X002026Y014772D01*
X001547Y014600D01*
X001547Y014100D01*
X002026Y013975D01*
X002004Y013981D02*
X000761Y013981D01*
X000745Y013981D01*
X000745Y013965D02*
X001016Y014240D01*
X001016Y015070D01*
X001295Y015002D01*
X001295Y014172D01*
X001016Y014240D01*
X000745Y013965D01*
X000745Y014040D02*
X000819Y014040D01*
X001780Y014040D01*
X001555Y014098D02*
X000876Y014098D01*
X000745Y014098D01*
X000745Y014157D02*
X000934Y014157D01*
X001547Y014157D01*
X001547Y014215D02*
X001295Y014215D01*
X001295Y014274D02*
X001547Y014274D01*
X001547Y014332D02*
X001295Y014332D01*
X001295Y014391D02*
X001547Y014391D01*
X001547Y014449D02*
X001295Y014449D01*
X001295Y014508D02*
X001547Y014508D01*
X001547Y014566D02*
X001295Y014566D01*
X001295Y014625D02*
X001615Y014625D01*
X001778Y014683D02*
X001295Y014683D01*
X001295Y014742D02*
X001942Y014742D01*
X002026Y014800D02*
X001295Y014800D01*
X001295Y014859D02*
X002026Y014859D01*
X002026Y014917D02*
X001295Y014917D01*
X001295Y014976D02*
X001548Y014976D01*
X001539Y015034D02*
X001165Y015034D01*
X001016Y015034D02*
X000745Y015034D01*
X000745Y014976D02*
X001016Y014976D01*
X001016Y014917D02*
X000745Y014917D01*
X000745Y014859D02*
X001016Y014859D01*
X001016Y014800D02*
X000745Y014800D01*
X000745Y014742D02*
X001016Y014742D01*
X001016Y014683D02*
X000745Y014683D01*
X000745Y014625D02*
X001016Y014625D01*
X001016Y014566D02*
X000745Y014566D01*
X000745Y014508D02*
X001016Y014508D01*
X001016Y014449D02*
X000745Y014449D01*
X000745Y014391D02*
X001016Y014391D01*
X001016Y014332D02*
X000745Y014332D01*
X000745Y014274D02*
X001016Y014274D01*
X000991Y014215D02*
X001120Y014215D01*
X000991Y014215D02*
X000745Y014215D01*
X000745Y013689D02*
X000832Y013689D01*
X000745Y013630D02*
X001016Y013630D01*
X001016Y013572D02*
X000745Y013572D01*
X000745Y013513D02*
X001016Y013513D01*
X001016Y013455D02*
X000745Y013455D01*
X000745Y013396D02*
X001016Y013396D01*
X001016Y013338D02*
X000745Y013338D01*
X000745Y013279D02*
X001016Y013279D01*
X001016Y013221D02*
X000745Y013221D01*
X000745Y013162D02*
X001016Y013162D01*
X001016Y013104D02*
X000745Y013104D01*
X000745Y013045D02*
X001016Y013045D01*
X001016Y012987D02*
X000745Y012987D01*
X000745Y012928D02*
X001016Y012928D01*
X001016Y012870D02*
X000745Y012870D01*
X000745Y012811D02*
X001016Y012811D01*
X001016Y012753D02*
X000745Y012753D01*
X000745Y012694D02*
X001016Y012694D01*
X001016Y012636D02*
X000745Y012636D01*
X000745Y012577D02*
X001016Y012577D01*
X001016Y012519D02*
X000745Y012519D01*
X000745Y012460D02*
X001040Y012460D01*
X001268Y012402D02*
X000748Y012402D01*
X000767Y012343D02*
X001496Y012343D01*
X001500Y011992D02*
X001989Y011992D01*
X002021Y012051D02*
X001270Y012051D01*
X001049Y012109D02*
X002026Y012109D01*
X001887Y011934D02*
X001741Y011934D01*
X001678Y011349D02*
X002026Y011349D01*
X002026Y011407D02*
X001451Y011407D01*
X001904Y011290D02*
X002026Y011290D01*
X000783Y009126D02*
X000745Y009126D01*
X000745Y009067D02*
X000837Y009067D01*
X000890Y009009D02*
X000745Y009009D01*
X000745Y008950D02*
X000944Y008950D01*
X000998Y008892D02*
X000745Y008892D01*
X000745Y008833D02*
X001051Y008833D01*
X001105Y008775D02*
X000749Y008775D01*
X000803Y008716D02*
X001158Y008716D01*
X001212Y008658D02*
X000857Y008658D01*
X000911Y008599D02*
X001266Y008599D01*
X001319Y008541D02*
X000965Y008541D01*
X001399Y008073D02*
X001744Y008073D01*
X001799Y008014D02*
X001452Y008014D01*
X001505Y007956D02*
X001853Y007956D01*
X001907Y007897D02*
X001558Y007897D01*
X001611Y007839D02*
X001962Y007839D01*
X002016Y007780D02*
X001664Y007780D01*
X001717Y007722D02*
X002026Y007722D01*
X002026Y007663D02*
X001770Y007663D01*
X001823Y007605D02*
X002026Y007605D01*
X002026Y007546D02*
X001877Y007546D01*
X001930Y007488D02*
X002026Y007488D01*
X002026Y007429D02*
X001983Y007429D01*
X002026Y014976D02*
X001633Y014976D01*
X001523Y015093D02*
X000745Y015093D01*
X000745Y015151D02*
X001491Y015151D01*
X001445Y015210D02*
X000745Y015210D01*
X000754Y015268D02*
X001382Y015268D01*
X001297Y015327D02*
X000782Y015327D01*
X000844Y015385D02*
X001129Y015385D01*
X001211Y015619D02*
X002024Y015619D01*
X002024Y015621D02*
X002026Y015649D01*
X002026Y016663D01*
X002025Y016704D01*
X002017Y016744D01*
X002000Y016783D01*
X001978Y016818D01*
X001939Y016867D01*
X001894Y016910D01*
X001838Y016953D01*
X001776Y016987D01*
X001709Y017011D01*
X001050Y017183D01*
X000996Y017191D01*
X000941Y017191D01*
X000896Y017186D01*
X000852Y017173D01*
X000818Y017155D01*
X000788Y017130D01*
X000766Y017098D01*
X000751Y017062D01*
X000745Y017024D01*
X000745Y016035D01*
X001016Y016015D01*
X000745Y016035D01*
X000745Y015992D01*
X000753Y015938D01*
X000771Y015886D01*
X000799Y015839D01*
X000857Y015777D01*
X000924Y015726D01*
X000996Y015685D01*
X001074Y015655D01*
X001703Y015488D01*
X001742Y015480D01*
X001836Y015476D01*
X001880Y015482D01*
X001922Y015496D01*
X001948Y015506D01*
X001971Y015523D01*
X001991Y015543D01*
X002007Y015567D01*
X002019Y015593D01*
X002024Y015621D01*
X002026Y015678D02*
X001015Y015678D01*
X000910Y015736D02*
X002026Y015736D01*
X002026Y015795D02*
X000840Y015795D01*
X000791Y015853D02*
X001628Y015853D01*
X001755Y015853D02*
X002026Y015853D01*
X002026Y015912D02*
X001755Y015912D01*
X001755Y015970D02*
X002026Y015970D01*
X002026Y016029D02*
X001755Y016029D01*
X001755Y016087D02*
X002026Y016087D01*
X002026Y016146D02*
X001755Y016146D01*
X001755Y016204D02*
X002026Y016204D01*
X002026Y016263D02*
X001755Y016263D01*
X001755Y016321D02*
X002026Y016321D01*
X002026Y016380D02*
X001755Y016380D01*
X001755Y016438D02*
X002026Y016438D01*
X002026Y016497D02*
X001755Y016497D01*
X001755Y016555D02*
X002026Y016555D01*
X002026Y016614D02*
X001755Y016614D01*
X001755Y016652D02*
X001016Y016847D01*
X001016Y016015D01*
X001755Y015820D01*
X001755Y016652D01*
X001678Y016672D02*
X002026Y016672D01*
X002020Y016731D02*
X001457Y016731D01*
X001236Y016789D02*
X001996Y016789D01*
X001954Y016848D02*
X000745Y016848D01*
X000745Y016906D02*
X001898Y016906D01*
X001817Y016965D02*
X000745Y016965D01*
X000745Y017023D02*
X001664Y017023D01*
X001439Y017082D02*
X000759Y017082D01*
X000800Y017140D02*
X001214Y017140D01*
X001016Y016789D02*
X000745Y016789D01*
X000745Y016731D02*
X001016Y016731D01*
X001016Y016672D02*
X000745Y016672D01*
X000745Y016614D02*
X001016Y016614D01*
X001016Y016555D02*
X000745Y016555D01*
X000745Y016497D02*
X001016Y016497D01*
X001016Y016438D02*
X000745Y016438D01*
X000745Y016380D02*
X001016Y016380D01*
X001016Y016321D02*
X000745Y016321D01*
X000745Y016263D02*
X001016Y016263D01*
X001016Y016204D02*
X000745Y016204D01*
X000745Y016146D02*
X001016Y016146D01*
X001016Y016087D02*
X000745Y016087D01*
X000745Y016029D02*
X000832Y016029D01*
X001016Y016029D01*
X001186Y015970D02*
X000748Y015970D01*
X000762Y015912D02*
X001407Y015912D01*
X001430Y015561D02*
X002002Y015561D01*
X001937Y015502D02*
X001650Y015502D01*
X001795Y015034D02*
X002026Y015034D01*
X002026Y015093D02*
X001957Y015093D01*
D11*
X020180Y001600D03*
D12*
X019180Y004600D03*
X018180Y004600D03*
X017180Y004600D03*
X016180Y004600D03*
X015180Y004600D03*
X014180Y004600D03*
X013180Y004600D03*
X012180Y004600D03*
X011180Y004600D03*
X010180Y004600D03*
X008930Y005600D03*
X008930Y006600D03*
X010180Y007600D03*
X011180Y007600D03*
X012180Y007600D03*
X013180Y007600D03*
X014180Y007600D03*
X015180Y007600D03*
X016180Y007600D03*
X017180Y007600D03*
X018180Y007600D03*
X019180Y007600D03*
X019180Y009850D03*
X018180Y009850D03*
X017180Y009850D03*
X016180Y009850D03*
X014930Y010850D03*
X014930Y011850D03*
X013680Y012850D03*
X012680Y012850D03*
X011680Y012850D03*
X010680Y012850D03*
X009680Y012850D03*
X008680Y012850D03*
X007680Y012850D03*
X006680Y012850D03*
X005430Y011850D03*
X005430Y010850D03*
X006680Y009850D03*
X007680Y009850D03*
X008680Y009850D03*
X009680Y009850D03*
X010680Y009850D03*
X011680Y009850D03*
X012680Y009850D03*
X013680Y009850D03*
X016180Y012850D03*
X017180Y012850D03*
X018180Y012850D03*
X019180Y012850D03*
X020180Y012850D03*
X021180Y012850D03*
X022180Y012850D03*
X023180Y012850D03*
X024430Y011850D03*
X024430Y010850D03*
X023180Y009850D03*
X022180Y009850D03*
X021180Y009850D03*
X020180Y009850D03*
X021930Y006600D03*
X021930Y005600D03*
X023180Y004600D03*
X024180Y004600D03*
X025180Y004600D03*
X026180Y004600D03*
X027180Y004600D03*
X028180Y004600D03*
X029180Y004600D03*
X030180Y004600D03*
X031180Y004600D03*
X032180Y004600D03*
X032180Y007600D03*
X032180Y008600D03*
X031180Y008600D03*
X031180Y007600D03*
X030180Y007600D03*
X030180Y008600D03*
X029180Y008600D03*
X029180Y007600D03*
X028180Y007600D03*
X028180Y008600D03*
X027180Y008600D03*
X027180Y007600D03*
X026180Y007600D03*
X026180Y008600D03*
X025180Y008600D03*
X025180Y007600D03*
X024180Y007600D03*
X023180Y007600D03*
X025680Y009850D03*
X026680Y009850D03*
X027680Y009850D03*
X028680Y009850D03*
X029680Y009850D03*
X030680Y009850D03*
X031680Y009850D03*
X032680Y009850D03*
X033680Y009850D03*
X034680Y009850D03*
X033180Y008600D03*
X032680Y012850D03*
X031680Y012850D03*
X030680Y012850D03*
X029680Y012850D03*
X028680Y012850D03*
X027680Y012850D03*
X026680Y012850D03*
X025680Y012850D03*
X023680Y017600D03*
X023680Y018600D03*
X023680Y019600D03*
X023680Y020600D03*
X023680Y021600D03*
X023680Y022600D03*
X023680Y023600D03*
X023680Y024600D03*
X023680Y025600D03*
X023680Y026600D03*
X023680Y027600D03*
X024680Y027600D03*
X025430Y027100D03*
X025430Y028100D03*
X026680Y029100D03*
X027680Y029100D03*
X028680Y029100D03*
X029680Y029100D03*
X030680Y029100D03*
X031680Y029100D03*
X032680Y029100D03*
X033680Y029100D03*
X034680Y029100D03*
X035680Y029100D03*
X037180Y029600D03*
X037180Y030600D03*
X038180Y030600D03*
X038180Y029600D03*
X035680Y031100D03*
X034680Y031100D03*
X033680Y031100D03*
X032680Y031100D03*
X031680Y031100D03*
X030680Y031100D03*
X029680Y031100D03*
X028680Y031100D03*
X027680Y031100D03*
X026680Y031100D03*
X025430Y032100D03*
X025430Y033100D03*
X026680Y034100D03*
X027680Y034100D03*
X028680Y034100D03*
X029680Y034100D03*
X030680Y034100D03*
X031680Y034100D03*
X032680Y034100D03*
X033680Y034100D03*
X034680Y034100D03*
X035680Y034100D03*
X037180Y034600D03*
X038180Y034600D03*
X034680Y036100D03*
X033680Y036100D03*
X032680Y036100D03*
X031680Y036100D03*
X030680Y036100D03*
X029680Y036100D03*
X028680Y036100D03*
X027680Y036100D03*
X026680Y036100D03*
X025680Y036100D03*
X024180Y036100D03*
X023180Y036100D03*
X022180Y036100D03*
X021180Y036100D03*
X020180Y036100D03*
X019180Y036100D03*
X018180Y036100D03*
X017180Y036100D03*
X016180Y036100D03*
X015180Y036100D03*
X014180Y036100D03*
X013180Y036100D03*
X012180Y036100D03*
X011180Y036100D03*
X010180Y036100D03*
X009180Y036100D03*
X008180Y036100D03*
X007180Y036100D03*
X006180Y036100D03*
X005180Y036100D03*
X005180Y034600D03*
X006180Y034600D03*
X007180Y034600D03*
X008180Y034600D03*
X009180Y034600D03*
X010180Y034600D03*
X011180Y034600D03*
X012180Y034600D03*
X013180Y034600D03*
X014180Y034600D03*
X015180Y034600D03*
X016180Y034600D03*
X017180Y034600D03*
X018180Y034600D03*
X019180Y034600D03*
X020180Y034600D03*
X021180Y034600D03*
X022180Y034600D03*
X023180Y034600D03*
X024180Y034600D03*
X024180Y030600D03*
X024180Y029600D03*
X024180Y028600D03*
X023180Y030600D03*
X022180Y030600D03*
X021180Y030600D03*
X020180Y030600D03*
X020180Y029600D03*
X020180Y028600D03*
X019180Y028600D03*
X019180Y029600D03*
X019180Y030600D03*
X018180Y030600D03*
X017180Y030600D03*
X016180Y030600D03*
X015180Y030600D03*
X015180Y029600D03*
X015180Y028600D03*
X014180Y028600D03*
X014180Y029600D03*
X014180Y030600D03*
X013180Y030600D03*
X012180Y030600D03*
X011180Y030600D03*
X010180Y030600D03*
X010180Y029600D03*
X010180Y028600D03*
X009180Y028600D03*
X009180Y029600D03*
X009180Y030600D03*
X008180Y030600D03*
X007180Y030600D03*
X006180Y030600D03*
X005180Y030600D03*
X005180Y029600D03*
X005180Y028600D03*
X005680Y026600D03*
X005680Y025600D03*
X005680Y024600D03*
X005680Y023600D03*
X005680Y022600D03*
X005680Y021600D03*
X005680Y020600D03*
X005680Y019600D03*
X005680Y018600D03*
X005680Y017600D03*
X008680Y017600D03*
X008680Y018600D03*
X008680Y019600D03*
X008680Y020600D03*
X008680Y021600D03*
X008680Y022600D03*
X008680Y023600D03*
X008680Y024600D03*
X008680Y025600D03*
X008680Y026600D03*
X008680Y027600D03*
X009680Y027600D03*
X010680Y026600D03*
X010680Y025600D03*
X010680Y024600D03*
X010680Y023600D03*
X010680Y022600D03*
X010680Y021600D03*
X010680Y020600D03*
X010680Y019600D03*
X010680Y018600D03*
X010680Y017600D03*
X013680Y017600D03*
X013680Y018600D03*
X013680Y019600D03*
X013680Y020600D03*
X013680Y021600D03*
X013680Y022600D03*
X013680Y023600D03*
X013680Y024600D03*
X013680Y025600D03*
X013680Y026600D03*
X013680Y027600D03*
X014680Y027600D03*
X015680Y026600D03*
X015680Y025600D03*
X015680Y024600D03*
X015680Y023600D03*
X015680Y022600D03*
X015680Y021600D03*
X015680Y020600D03*
X015680Y019600D03*
X015680Y018600D03*
X015680Y017600D03*
X018680Y017600D03*
X018680Y018600D03*
X018680Y019600D03*
X018680Y020600D03*
X018680Y021600D03*
X018680Y022600D03*
X018680Y023600D03*
X018680Y024600D03*
X018680Y025600D03*
X018680Y026600D03*
X018680Y027600D03*
X019680Y027600D03*
X020680Y026600D03*
X020680Y025600D03*
X020680Y024600D03*
X020680Y023600D03*
X020680Y022600D03*
X020680Y021600D03*
X020680Y020600D03*
X020680Y019600D03*
X020680Y018600D03*
X020680Y017600D03*
X026680Y026100D03*
X027680Y026100D03*
X028680Y026100D03*
X029680Y026100D03*
X030680Y026100D03*
X031680Y026100D03*
X032680Y026100D03*
X033680Y026100D03*
X034680Y026100D03*
X035680Y026100D03*
X037180Y025600D03*
X038180Y025600D03*
X034680Y012850D03*
X033680Y012850D03*
X033680Y039100D03*
X034680Y039100D03*
X034680Y040600D03*
X033680Y040600D03*
X032680Y040600D03*
X031680Y040600D03*
X030680Y040600D03*
X030680Y041600D03*
X029680Y041600D03*
X029680Y040600D03*
X028680Y040600D03*
X027680Y040600D03*
X027680Y039100D03*
X026680Y039100D03*
X025680Y039100D03*
X025680Y041600D03*
X024180Y042100D03*
X023180Y042100D03*
X022180Y042100D03*
X021180Y042100D03*
X020180Y042100D03*
X019180Y042100D03*
X018180Y042100D03*
X017180Y042100D03*
X016180Y042100D03*
X015180Y042100D03*
X014180Y042100D03*
X013180Y042100D03*
X012180Y042100D03*
X011180Y042100D03*
X010180Y042100D03*
X009180Y042100D03*
X008180Y042100D03*
X007180Y042100D03*
X006180Y042100D03*
X005180Y042100D03*
X028680Y039100D03*
X029680Y039100D03*
X030680Y039100D03*
X031680Y039100D03*
X032680Y039100D03*
X034680Y041600D03*
X035680Y040600D03*
D13*
X036680Y038100D03*
X036680Y037100D03*
X036680Y036100D03*
X003680Y036100D03*
X003680Y037100D03*
X003680Y038100D03*
D14*
X004555Y007225D03*
X006555Y007225D03*
D15*
X002180Y005100D03*
X002180Y041100D03*
X038180Y041100D03*
X038180Y005100D03*
D16*
X025680Y013600D03*
X007180Y004850D03*
X007180Y004350D03*
X007180Y003850D03*
X006180Y003850D03*
X006180Y004350D03*
X006180Y004850D03*
X004305Y013100D03*
X004305Y013600D03*
X004305Y014100D03*
X004305Y026725D03*
X004305Y027225D03*
X004305Y027725D03*
X005430Y037725D03*
X005930Y037725D03*
M02*
