%
M48
M72
T01C0.0197
T02C0.0236
T03C0.0315
T04C0.0320
T05C0.0400
T06C0.1600
%
T01
X27180Y11350
X28180Y11350
X29180Y11350
X30180Y11350
X31180Y11350
X32180Y11350
X33180Y11350
X34180Y11350
T02
X33180Y13600
X34180Y14600
X35180Y14225
X35180Y13600
X36680Y16100
X33180Y19100
X33680Y20100
X32680Y18100
X29680Y18100
X29180Y19100
X28680Y20100
X30180Y22100
X28680Y24100
X28180Y23100
X29180Y25100
X31180Y25100
X31680Y24100
X32180Y22100
X34680Y23100
X36680Y24100
X38180Y26600
X37180Y28600
X36680Y33100
X37680Y34100
X38180Y33225
X33180Y35600
X34180Y38600
X23680Y29100
X23180Y29600
X21680Y29600
X18680Y29100
X18180Y29600
X16680Y29600
X13680Y29100
X13180Y29600
X11680Y29600
X8680Y29100
X8180Y29600
X6680Y29600
X3180Y32600
X3180Y24100
X5180Y19100
X3180Y16100
X9930Y14225
X12180Y15100
X13680Y15600
X15180Y18100
X11930Y18350
X11930Y19350
X11930Y20350
X9930Y18600
X16180Y26100
X21930Y20350
X21930Y19350
X21930Y18350
X19930Y18600
X19180Y14600
X18180Y14225
X20180Y14225
X17180Y8850
X16180Y8725
X17180Y5350
X20180Y8100
X23180Y8850
X23680Y7100
X24680Y6850
X21180Y4350
X29180Y13600
X31180Y13600
X28180Y16600
X27680Y17600
X27180Y15600
X26680Y15100
X25180Y21100
X27680Y27100
X11680Y7100
X11055Y5475
T03
X7180Y4850
X7180Y4350
X7180Y3850
X6180Y3850
X6180Y4350
X6180Y4850
X4305Y13100
X4305Y13600
X4305Y14100
X4305Y26725
X4305Y27225
X4305Y27725
X5430Y37725
X5930Y37725
X25680Y13600
T04
X25680Y12850
X26680Y12850
X27680Y12850
X28680Y12850
X29680Y12850
X30680Y12850
X31680Y12850
X32680Y12850
X33680Y12850
X34680Y12850
X34680Y9850
X33680Y9850
X32680Y9850
X31680Y9850
X30680Y9850
X29680Y9850
X28680Y9850
X27680Y9850
X26680Y9850
X25680Y9850
X25180Y8600
X25180Y7600
X26180Y7600
X26180Y8600
X27180Y8600
X27180Y7600
X28180Y7600
X28180Y8600
X29180Y8600
X29180Y7600
X30180Y7600
X30180Y8600
X31180Y8600
X31180Y7600
X32180Y7600
X32180Y8600
X33180Y8600
X32180Y4600
X31180Y4600
X30180Y4600
X29180Y4600
X28180Y4600
X27180Y4600
X26180Y4600
X25180Y4600
X24180Y4600
X23180Y4600
X21930Y5600
X21930Y6600
X23180Y7600
X24180Y7600
X23180Y9850
X22180Y9850
X21180Y9850
X20180Y9850
X19180Y9850
X18180Y9850
X17180Y9850
X16180Y9850
X14930Y10850
X14930Y11850
X13680Y12850
X12680Y12850
X11680Y12850
X10680Y12850
X9680Y12850
X8680Y12850
X7680Y12850
X6680Y12850
X5430Y11850
X5430Y10850
X6680Y9850
X7680Y9850
X8680Y9850
X9680Y9850
X10680Y9850
X11680Y9850
X12680Y9850
X13680Y9850
X13180Y7600
X12180Y7600
X11180Y7600
X10180Y7600
X8930Y6600
X8930Y5600
X10180Y4600
X11180Y4600
X12180Y4600
X13180Y4600
X14180Y4600
X15180Y4600
X16180Y4600
X17180Y4600
X18180Y4600
X19180Y4600
X19180Y7600
X18180Y7600
X17180Y7600
X16180Y7600
X15180Y7600
X14180Y7600
X16180Y12850
X17180Y12850
X18180Y12850
X19180Y12850
X20180Y12850
X21180Y12850
X22180Y12850
X23180Y12850
X24430Y11850
X24430Y10850
X23680Y17600
X23680Y18600
X23680Y19600
X23680Y20600
X23680Y21600
X23680Y22600
X23680Y23600
X23680Y24600
X23680Y25600
X23680Y26600
X23680Y27600
X24680Y27600
X25430Y27100
X25430Y28100
X26680Y29100
X27680Y29100
X28680Y29100
X29680Y29100
X30680Y29100
X31680Y29100
X32680Y29100
X33680Y29100
X34680Y29100
X35680Y29100
X37180Y29600
X37180Y30600
X38180Y30600
X38180Y29600
X35680Y31100
X34680Y31100
X33680Y31100
X32680Y31100
X31680Y31100
X30680Y31100
X29680Y31100
X28680Y31100
X27680Y31100
X26680Y31100
X25430Y32100
X25430Y33100
X26680Y34100
X27680Y34100
X28680Y34100
X29680Y34100
X30680Y34100
X31680Y34100
X32680Y34100
X33680Y34100
X34680Y34100
X35680Y34100
X37180Y34600
X38180Y34600
X34680Y36100
X33680Y36100
X32680Y36100
X31680Y36100
X30680Y36100
X29680Y36100
X28680Y36100
X27680Y36100
X26680Y36100
X25680Y36100
X24180Y36100
X23180Y36100
X22180Y36100
X21180Y36100
X20180Y36100
X19180Y36100
X18180Y36100
X17180Y36100
X16180Y36100
X15180Y36100
X14180Y36100
X13180Y36100
X12180Y36100
X11180Y36100
X10180Y36100
X9180Y36100
X8180Y36100
X7180Y36100
X6180Y36100
X5180Y36100
X5180Y34600
X6180Y34600
X7180Y34600
X8180Y34600
X9180Y34600
X10180Y34600
X11180Y34600
X12180Y34600
X13180Y34600
X14180Y34600
X15180Y34600
X16180Y34600
X17180Y34600
X18180Y34600
X19180Y34600
X20180Y34600
X21180Y34600
X22180Y34600
X23180Y34600
X24180Y34600
X24180Y30600
X24180Y29600
X24180Y28600
X23180Y30600
X22180Y30600
X21180Y30600
X20180Y30600
X20180Y29600
X20180Y28600
X19180Y28600
X19180Y29600
X19180Y30600
X18180Y30600
X17180Y30600
X16180Y30600
X15180Y30600
X15180Y29600
X15180Y28600
X14180Y28600
X14180Y29600
X14180Y30600
X13180Y30600
X12180Y30600
X11180Y30600
X10180Y30600
X10180Y29600
X10180Y28600
X9180Y28600
X9180Y29600
X9180Y30600
X8180Y30600
X7180Y30600
X6180Y30600
X5180Y30600
X5180Y29600
X5180Y28600
X5680Y26600
X5680Y25600
X5680Y24600
X5680Y23600
X5680Y22600
X5680Y21600
X5680Y20600
X5680Y19600
X5680Y18600
X5680Y17600
X8680Y17600
X8680Y18600
X8680Y19600
X8680Y20600
X8680Y21600
X8680Y22600
X8680Y23600
X8680Y24600
X8680Y25600
X8680Y26600
X8680Y27600
X9680Y27600
X10680Y26600
X10680Y25600
X10680Y24600
X10680Y23600
X10680Y22600
X10680Y21600
X10680Y20600
X10680Y19600
X10680Y18600
X10680Y17600
X13680Y17600
X13680Y18600
X13680Y19600
X13680Y20600
X13680Y21600
X13680Y22600
X13680Y23600
X13680Y24600
X13680Y25600
X13680Y26600
X13680Y27600
X14680Y27600
X15680Y26600
X15680Y25600
X15680Y24600
X15680Y23600
X15680Y22600
X15680Y21600
X15680Y20600
X15680Y19600
X15680Y18600
X15680Y17600
X18680Y17600
X18680Y18600
X18680Y19600
X18680Y20600
X18680Y21600
X18680Y22600
X18680Y23600
X18680Y24600
X18680Y25600
X18680Y26600
X18680Y27600
X19680Y27600
X20680Y26600
X20680Y25600
X20680Y24600
X20680Y23600
X20680Y22600
X20680Y21600
X20680Y20600
X20680Y19600
X20680Y18600
X20680Y17600
X26680Y26100
X27680Y26100
X28680Y26100
X29680Y26100
X30680Y26100
X31680Y26100
X32680Y26100
X33680Y26100
X34680Y26100
X35680Y26100
X37180Y25600
X38180Y25600
X34680Y39100
X33680Y39100
X32680Y39100
X31680Y39100
X30680Y39100
X29680Y39100
X28680Y39100
X27680Y39100
X26680Y39100
X25680Y39100
X27680Y40600
X28680Y40600
X29680Y40600
X29680Y41600
X30680Y41600
X30680Y40600
X31680Y40600
X32680Y40600
X33680Y40600
X34680Y40600
X34680Y41600
X35680Y40600
X25680Y41600
X24180Y42100
X23180Y42100
X22180Y42100
X21180Y42100
X20180Y42100
X19180Y42100
X18180Y42100
X17180Y42100
X16180Y42100
X15180Y42100
X14180Y42100
X13180Y42100
X12180Y42100
X11180Y42100
X10180Y42100
X9180Y42100
X8180Y42100
X7180Y42100
X6180Y42100
X5180Y42100
T05
X3680Y38100
X3680Y37100
X3680Y36100
X4555Y7225
X6555Y7225
X36680Y36100
X36680Y37100
X36680Y38100
T06
X2180Y5100
X2180Y41100
X38180Y41100
X38180Y5100
M30
